solid Mesh
  facet normal -1.000000 0.000000 0.000000
    outer loop
      vertex -11.500000 10.500000 -11.000000
      vertex -11.500000 -11.500000 11.000000
      vertex -11.500000 10.500000 11.000000
    endloop
  endfacet
  facet normal -1.000000 0.000000 0.000000
    outer loop
      vertex -11.500000 10.500000 -11.000000
      vertex -11.500000 -11.500000 -11.000000
      vertex -11.500000 -11.500000 11.000000
    endloop
  endfacet
  facet normal 0.000000 1.000000 -0.000000
    outer loop
      vertex 10.500000 10.500000 -11.000000
      vertex -11.500000 10.500000 11.000000
      vertex 10.500000 10.500000 11.000000
    endloop
  endfacet
  facet normal 0.000000 1.000000 0.000000
    outer loop
      vertex 10.500000 10.500000 -11.000000
      vertex -11.500000 10.500000 -11.000000
      vertex -11.500000 10.500000 11.000000
    endloop
  endfacet
  facet normal 0.000000 -1.000000 0.000000
    outer loop
      vertex -11.500000 -11.500000 -11.000000
      vertex 10.500000 -11.500000 11.000000
      vertex -11.500000 -11.500000 11.000000
    endloop
  endfacet
  facet normal 0.000000 -1.000000 0.000000
    outer loop
      vertex -11.500000 -11.500000 -11.000000
      vertex 10.500000 -11.500000 -11.000000
      vertex 10.500000 -11.500000 11.000000
    endloop
  endfacet
  facet normal 0.000000 0.000000 -1.000000
    outer loop
      vertex -11.500000 10.500000 -11.000000
      vertex 10.500000 10.500000 -11.000000
      vertex -11.500000 -11.500000 -11.000000
    endloop
  endfacet
  facet normal 0.000000 0.000000 -1.000000
    outer loop
      vertex -11.500000 -11.500000 -11.000000
      vertex 10.500000 10.500000 -11.000000
      vertex 10.500000 -11.500000 -11.000000
    endloop
  endfacet
  facet normal 0.000000 0.000000 1.000000
    outer loop
      vertex -10.500000 9.500000 11.000000
      vertex -11.500000 -11.500000 11.000000
      vertex -10.500000 -10.500000 11.000000
    endloop
  endfacet
  facet normal 0.000000 0.000000 1.000000
    outer loop
      vertex -11.500000 10.500000 11.000000
      vertex -11.500000 -11.500000 11.000000
      vertex -10.500000 9.500000 11.000000
    endloop
  endfacet
  facet normal 0.000000 0.000000 1.000000
    outer loop
      vertex 10.500000 -11.500000 11.000000
      vertex 9.500000 -10.500000 11.000000
      vertex -10.500000 -10.500000 11.000000
    endloop
  endfacet
  facet normal 0.000000 0.000000 1.000000
    outer loop
      vertex 10.500000 -11.500000 11.000000
      vertex -10.500000 -10.500000 11.000000
      vertex -11.500000 -11.500000 11.000000
    endloop
  endfacet
  facet normal 0.000000 0.000000 1.000000
    outer loop
      vertex 9.500000 9.500000 11.000000
      vertex 9.500000 -10.500000 11.000000
      vertex 10.500000 -11.500000 11.000000
    endloop
  endfacet
  facet normal 0.000000 0.000000 1.000000
    outer loop
      vertex 10.500000 10.500000 11.000000
      vertex 9.500000 9.500000 11.000000
      vertex 10.500000 -11.500000 11.000000
    endloop
  endfacet
  facet normal 0.000000 0.000000 1.000000
    outer loop
      vertex 10.500000 10.500000 11.000000
      vertex -11.500000 10.500000 11.000000
      vertex -10.500000 9.500000 11.000000
    endloop
  endfacet
  facet normal 0.000000 0.000000 1.000000
    outer loop
      vertex 10.500000 10.500000 11.000000
      vertex -10.500000 9.500000 11.000000
      vertex 9.500000 9.500000 11.000000
    endloop
  endfacet
  facet normal 1.000000 0.000000 0.000000
    outer loop
      vertex 10.500000 -11.500000 -11.000000
      vertex 10.500000 10.500000 11.000000
      vertex 10.500000 -11.500000 11.000000
    endloop
  endfacet
  facet normal 1.000000 0.000000 0.000000
    outer loop
      vertex 10.500000 -11.500000 -11.000000
      vertex 10.500000 10.500000 -11.000000
      vertex 10.500000 10.500000 11.000000
    endloop
  endfacet
  facet normal 1.000000 0.000000 0.000000
    outer loop
      vertex -10.500000 9.500000 11.000000
      vertex -10.500000 -10.500000 11.000000
      vertex -10.500000 9.500000 -10.000000
    endloop
  endfacet
  facet normal 1.000000 0.000000 0.000000
    outer loop
      vertex -10.500000 9.500000 -10.000000
      vertex -10.500000 -10.500000 11.000000
      vertex -10.500000 -10.500000 -10.000000
    endloop
  endfacet
  facet normal -0.000000 1.000000 0.000000
    outer loop
      vertex -10.500000 -10.500000 11.000000
      vertex 9.500000 -10.500000 11.000000
      vertex -10.500000 -10.500000 -10.000000
    endloop
  endfacet
  facet normal 0.000000 1.000000 0.000000
    outer loop
      vertex -10.500000 -10.500000 -10.000000
      vertex 9.500000 -10.500000 11.000000
      vertex 9.500000 -10.500000 -10.000000
    endloop
  endfacet
  facet normal -1.000000 0.000000 0.000000
    outer loop
      vertex 9.500000 -10.500000 11.000000
      vertex 9.500000 9.500000 11.000000
      vertex 9.500000 -10.500000 -10.000000
    endloop
  endfacet
  facet normal -1.000000 0.000000 0.000000
    outer loop
      vertex 9.500000 -10.500000 -10.000000
      vertex 9.500000 9.500000 11.000000
      vertex 9.500000 9.500000 -10.000000
    endloop
  endfacet
  facet normal -0.000000 -1.000000 -0.000000
    outer loop
      vertex 9.500000 9.500000 11.000000
      vertex -10.500000 9.500000 11.000000
      vertex 9.500000 9.500000 -10.000000
    endloop
  endfacet
  facet normal 0.000000 -1.000000 0.000000
    outer loop
      vertex 9.500000 9.500000 -10.000000
      vertex -10.500000 9.500000 11.000000
      vertex -10.500000 9.500000 -10.000000
    endloop
  endfacet
  facet normal 0.000000 0.000000 1.000000
    outer loop
      vertex 9.500000 9.500000 -10.000000
      vertex -10.500000 9.500000 -10.000000
      vertex -10.500000 -10.500000 -10.000000
    endloop
  endfacet
  facet normal 0.000000 0.000000 1.000000
    outer loop
      vertex 9.500000 9.500000 -10.000000
      vertex -10.500000 -10.500000 -10.000000
      vertex 9.500000 -10.500000 -10.000000
    endloop
  endfacet
endsolid Mesh
